<svg xmlns="http://www.w3.org/2000/svg" width="283" height="252" viewBox="0 0 283 252">
<g>
<path d="M 151.20 229.80 C150.53,237.19 150.39,237.51 147.84,237.81 C145.23,238.11 145.16,237.96 144.55,231.31 C143.22,216.67 138.36,204.64 131.77,199.66 C129.97,198.30 125.77,196.09 122.44,194.74 C119.10,193.39 113.28,190.43 109.50,188.15 C101.75,183.47 101.70,183.46 100.04,185.45 C97.94,187.98 99.95,190.95 107.52,196.55 C118.48,204.65 118.96,206.71 108.44,200.49 C100.37,195.72 95.74,190.36 93.13,182.79 C89.29,171.64 86.83,167.54 83.75,167.18 C80.40,166.80 80.37,167.21 83.07,177.56 C85.88,188.36 92.86,202.86 96.86,206.23 C98.63,207.72 104.82,211.52 110.63,214.69 C116.43,217.85 122.46,221.90 124.03,223.69 C126.80,226.85 129.41,233.53 128.46,235.07 C127.21,237.08 105.39,229.90 94.00,223.73 C82.75,217.63 78.36,214.40 68.70,205.09 C48.31,185.45 36.71,161.30 34.08,133.00 C32.03,110.97 35.93,90.91 46.12,71.00 C63.88,36.32 96.46,14.16 135.94,9.91 C184.10,4.71 228.96,29.30 250.42,72.66 C266.45,105.05 265.85,145.04 248.84,177.00 C234.57,203.82 207.07,225.77 178.10,233.44 C168.69,235.94 166.76,235.99 167.46,233.72 C167.67,233.05 168.10,231.27 168.43,229.77 C169.49,224.92 174.84,220.17 185.29,214.80 C190.82,211.96 196.74,208.41 198.45,206.91 C205.17,201.01 216.86,170.43 213.64,167.21 C212.60,166.17 211.73,166.07 210.31,166.83 C208.00,168.07 206.04,171.80 201.97,182.67 C200.29,187.16 198.01,191.99 196.89,193.41 C194.86,195.99 181.30,204.64 180.52,203.85 C179.77,203.10 181.45,201.40 187.00,197.31 C194.01,192.15 196.26,189.61 195.83,187.32 C195.29,184.52 191.27,184.54 187.17,187.37 C185.15,188.76 179.23,191.89 174.00,194.32 C163.56,199.17 159.95,202.20 156.50,209.01 C153.44,215.05 152.04,220.53 151.20,229.80 ZM 149.00 164.10 C149.00,176.70 149.34,187.00 149.75,186.99 C150.16,186.99 151.85,186.07 153.50,184.94 C160.44,180.21 171.85,175.43 185.75,171.42 C186.70,171.15 187.00,165.68 187.00,148.42 L 187.00 125.77 L 182.25 126.44 C171.06,128.01 158.38,132.97 152.60,138.05 L 149.00 141.21 ZM 140.58 183.85 L 145.50 186.93 L 146.01 181.71 C146.29,178.85 146.65,168.81 146.82,159.40 L 147.13 142.31 L 144.34 138.99 C142.80,137.16 138.78,134.41 135.39,132.88 C128.84,129.91 115.15,126.00 111.29,126.00 L 108.96 126.00 L 109.50 171.30 L 118.00 174.02 C128.38,177.33 134.13,179.83 140.58,183.85 ZM 153.00 188.04 C153.00,188.45 155.36,188.08 158.25,187.22 C161.14,186.37 170.93,184.04 180.00,182.05 L 196.50 178.44 L 196.77 156.22 L 197.04 134.00 L 189.00 134.00 L 188.99 153.75 L 188.98 173.50 L 180.84 175.77 C172.55,178.08 153.00,186.70 153.00,188.04 ZM 125.50 184.38 C133.20,186.24 139.93,187.50 140.46,187.19 C141.98,186.29 125.73,178.94 115.64,175.95 L 106.50 173.24 L 106.23 153.62 L 105.96 134.00 L 99.00 134.00 L 99.00 178.79 L 105.25 179.90 C108.69,180.51 117.80,182.52 125.50,184.38 ZM 131.58 113.60 C132.04,116.04 132.76,117.00 134.11,117.00 C135.69,117.00 136.00,116.23 136.02,112.25 C136.06,104.70 139.15,99.48 150.43,88.00 C162.09,76.12 164.01,73.04 164.74,64.98 C165.38,57.83 163.93,53.36 158.89,46.99 C154.84,41.86 153.06,41.02 151.14,43.33 C150.29,44.35 150.76,45.34 153.14,47.58 C156.82,51.04 159.95,57.35 159.98,61.38 C160.03,68.39 157.72,72.30 146.83,83.68 C140.94,89.83 135.43,96.19 134.59,97.83 C132.29,102.27 130.86,109.76 131.58,113.60 ZM 137.84 80.75 C141.24,84.38 142.21,84.66 143.97,82.54 C144.96,81.34 144.45,80.20 141.16,76.29 C131.08,64.31 132.93,55.17 147.99,42.59 C160.33,32.29 162.41,29.56 163.60,22.10 C164.19,18.44 164.04,18.00 162.24,18.00 C160.86,18.00 160.00,18.88 159.54,20.75 C158.14,26.44 153.90,31.90 146.63,37.37 C134.56,46.46 130.05,53.27 130.03,62.50 C130.02,68.33 133.23,75.85 137.84,80.75 ZM 159.92 116.75 C159.96,116.89 160.65,117.00 161.45,117.00 C163.32,117.00 164.44,111.21 163.54,106.25 C163.16,104.19 161.48,100.04 159.80,97.04 L 156.74 91.57 L 162.68 85.99 C168.35,80.66 173.50,78.05 183.50,75.43 C186.33,74.69 186.36,74.62 184.12,74.23 C182.81,74.01 179.72,74.34 177.25,74.96 C174.78,75.58 172.51,75.85 172.21,75.55 C171.91,75.25 172.36,72.53 173.20,69.50 C175.19,62.35 174.01,62.45 171.01,69.69 C169.37,73.64 166.97,76.93 163.14,80.44 C160.11,83.22 155.81,87.18 153.59,89.23 L 149.56 92.95 L 152.67 96.23 C157.08,100.88 159.28,105.73 159.58,111.50 C159.72,114.25 159.88,116.61 159.92,116.75 ZM 171.05 59.05 C176.59,62.56 183.00,55.52 183.00,45.93 C183.00,43.77 182.76,42.00 182.47,42.00 C180.54,42.00 175.05,45.24 172.65,47.78 C169.44,51.21 168.55,57.47 171.05,59.05 ZM 117.31 58.50 C120.20,60.53 122.07,60.41 121.39,58.25 C120.89,56.66 120.98,56.67 122.34,58.33 C123.78,60.10 123.89,60.08 125.01,57.99 C126.29,55.60 125.65,51.72 123.42,48.26 C121.83,45.82 114.18,41.49 113.19,42.48 C110.82,44.85 113.67,55.96 117.31,58.50 ZM 184.90 86.72 C187.28,88.31 189.75,89.00 193.15,89.00 C199.09,89.00 199.30,87.88 194.42,82.18 C191.21,78.43 190.39,78.00 186.36,78.00 C183.63,78.00 182.12,78.39 182.50,79.00 C182.84,79.55 182.61,80.00 181.99,80.00 C179.67,80.00 181.62,84.51 184.90,86.72 ZM 98.26 88.34 C102.87,90.21 110.52,87.95 113.37,83.88 C116.99,78.71 108.28,75.63 102.61,80.09 C99.09,82.86 96.56,87.65 98.26,88.34 ZM 107.10 67.71 C111.80,69.97 115.00,68.91 115.00,65.12 C115.00,59.71 109.44,55.52 103.13,56.18 L 100.03 56.50 L 102.37 61.53 C103.67,64.33 105.77,67.07 107.10,67.71 ZM 134.54 87.05 C136.47,89.17 139.50,89.32 139.50,87.28 C139.50,86.63 136.46,83.59 132.75,80.52 C129.04,77.46 126.00,74.57 126.00,74.11 C126.00,72.70 121.87,63.80 121.42,64.25 C121.19,64.47 121.71,67.03 122.57,69.93 C123.43,72.83 123.95,75.39 123.71,75.62 C123.48,75.85 120.98,75.54 118.15,74.94 C110.40,73.28 109.84,74.32 117.08,76.91 C124.01,79.39 131.61,83.80 134.54,87.05 ZM 182.00 69.57 C182.00,70.82 187.53,68.83 189.70,66.80 C190.91,65.67 192.59,62.72 193.43,60.25 L 194.97 55.74 L 190.27 56.27 C186.65,56.68 184.92,57.52 182.78,59.92 C181.25,61.63 180.00,63.92 180.00,65.02 C180.00,67.46 180.75,67.51 183.38,65.25 C185.41,63.51 185.41,63.52 183.71,66.21 C182.77,67.71 182.00,69.22 182.00,69.57 ZM 174.50 95.35 C177.82,97.09 183.00,97.52 183.00,96.07 C183.00,91.16 176.92,84.00 172.75,84.00 C171.09,84.00 170.14,84.42 170.50,85.00 C170.84,85.55 170.64,86.00 170.06,86.00 C168.60,86.00 168.73,90.27 170.25,92.20 C170.94,93.07 172.85,94.49 174.50,95.35 ZM 113.00 96.10 C113.00,97.86 119.49,96.50 123.01,93.99 C127.83,90.56 128.48,84.00 123.70,86.93 C121.51,88.28 121.51,88.27 123.40,86.14 C125.31,84.01 125.30,84.00 122.31,84.00 C120.66,84.00 118.58,84.80 117.69,85.79 C115.95,87.71 113.00,94.20 113.00,96.10 ZM 192.44 75.53 C194.83,77.34 195.24,77.34 199.36,75.62 C202.92,74.13 207.32,69.32 206.43,67.88 C206.13,67.40 203.29,67.00 200.13,67.00 C195.68,67.00 193.87,67.47 192.14,69.09 C190.37,70.74 190.14,71.47 191.07,72.59 C191.72,73.36 191.85,74.01 191.37,74.03 C190.89,74.05 191.37,74.72 192.44,75.53 ZM 124.75 42.92 C127.36,44.44 130.98,44.21 131.65,42.48 C133.15,38.56 127.04,31.00 122.37,31.00 C120.50,31.00 120.00,31.54 120.00,33.55 C120.00,36.75 122.45,41.58 124.75,42.92 ZM 165.25 43.34 C169.57,45.08 173.23,42.42 174.93,36.31 C176.82,29.50 176.24,28.79 171.04,31.48 C165.50,34.35 161.79,41.94 165.25,43.34 ZM 93.31 74.08 C96.54,76.07 102.64,76.35 102.34,74.50 C102.24,73.95 102.64,72.93 103.22,72.23 C105.22,69.83 101.27,67.00 95.93,67.00 C89.29,67.00 87.77,67.70 89.08,70.15 C89.66,71.23 91.56,72.99 93.31,74.08 ZM 138.07 34.09 C141.51,38.43 142.18,38.70 144.03,36.46 C145.11,35.17 144.82,34.40 142.27,31.71 C138.69,27.94 136.00,22.93 136.00,20.05 C136.00,18.67 135.35,18.00 134.00,18.00 C130.02,18.00 132.22,26.70 138.07,34.09 ZM 138.00 66.50 C138.00,67.72 139.66,68.00 146.94,68.00 C155.98,68.00 159.57,66.76 153.86,65.62 C152.15,65.28 147.88,65.00 144.38,65.00 C139.38,65.00 138.00,65.32 138.00,66.50 ZM 142.25 107.28 C148.04,107.99 149.70,108.01 152.86,107.38 C158.33,106.28 155.14,105.00 146.94,105.00 C139.08,105.00 135.99,106.50 142.25,107.28 ZM 141.50 74.00 C141.84,74.55 144.57,75.00 147.56,75.00 C150.55,75.00 153.00,74.55 153.00,74.00 C153.00,73.44 150.31,73.00 146.94,73.00 C143.16,73.00 141.11,73.38 141.50,74.00 ZM 205.20 154.45 C206.87,156.34 207.04,156.33 208.52,154.31 C209.51,152.95 209.49,152.34 208.38,151.24 C207.21,150.06 206.77,150.09 205.45,151.41 C204.16,152.70 204.12,153.22 205.20,154.45 ZM 142.00 51.00 C142.00,51.55 144.48,52.00 147.50,52.00 C150.52,52.00 153.00,51.55 153.00,51.00 C153.00,50.45 150.52,50.00 147.50,50.00 C144.48,50.00 142.00,50.45 142.00,51.00 ZM 87.35 154.19 C88.34,155.77 88.58,155.78 90.17,154.34 C91.69,152.97 91.73,152.58 90.47,151.33 C88.40,149.26 85.78,151.67 87.35,154.19 ZM 145.81 127.60 C146.93,128.42 148.05,128.51 149.26,127.86 C150.84,127.02 150.88,126.73 149.56,125.42 C148.36,124.21 147.71,124.17 146.11,125.16 C144.31,126.29 144.28,126.49 145.81,127.60 ZM 90.56 126.09 C91.31,127.31 92.36,127.24 93.74,125.86 C94.58,125.02 94.53,124.38 93.51,123.36 C92.76,122.61 91.93,122.00 91.68,122.00 C90.85,122.00 89.98,125.16 90.56,126.09 ZM 202.38 126.58 C204.18,128.54 206.22,126.32 204.76,123.99 C203.72,122.32 203.50,122.30 202.44,123.76 C201.57,124.94 201.55,125.68 202.38,126.58 ZM 172.45 117.91 C173.24,119.20 174.04,119.26 175.80,118.15 C176.83,117.49 176.77,117.05 175.50,116.00 C173.71,114.51 171.28,116.03 172.45,117.91 ZM 119.57 118.11 C120.22,119.17 120.37,119.18 122.44,118.38 C123.69,117.90 123.79,117.46 122.89,116.37 C122.02,115.32 121.40,115.25 120.38,116.10 C119.63,116.72 119.27,117.63 119.57,118.11 Z" fill="rgb(32,84,91)"/>
<path d="M 147.02 52.00 C149.51,51.95 150.86,51.58 150.50,51.00 C150.19,50.51 148.51,50.09 146.60,50.01 C146.89,50.00 147.19,50.00 147.50,50.00 C150.52,50.00 153.00,50.45 153.00,51.00 C153.00,51.55 150.52,52.00 147.50,52.00 C147.34,52.00 147.18,52.00 147.02,52.00 Z" fill="rgb(160,189,192)"/>
<path d="M 0.00 126.00 L 0.00 0.00 L 141.50 0.00 L 283.00 0.00 L 283.00 126.00 L 283.00 252.00 L 141.50 252.00 L 0.00 252.00 L 0.00 126.00 ZM 151.20 229.80 C152.04,220.53 153.44,215.05 156.50,209.01 C159.95,202.20 163.56,199.17 174.00,194.32 C179.23,191.89 185.15,188.76 187.17,187.37 C191.27,184.54 195.29,184.52 195.83,187.32 C196.26,189.61 194.01,192.15 187.00,197.31 C181.45,201.40 179.77,203.10 180.52,203.85 C181.30,204.64 194.86,195.99 196.89,193.41 C198.01,191.99 200.29,187.16 201.97,182.67 C206.04,171.80 208.00,168.07 210.31,166.83 C211.73,166.07 212.60,166.17 213.64,167.21 C216.86,170.43 205.17,201.01 198.45,206.91 C196.74,208.41 190.82,211.96 185.29,214.80 C174.84,220.17 169.49,224.92 168.43,229.77 C168.10,231.27 167.67,233.05 167.46,233.72 C166.76,235.99 168.69,235.94 178.10,233.44 C207.07,225.77 234.57,203.82 248.84,177.00 C265.85,145.04 266.45,105.05 250.42,72.66 C228.96,29.30 184.10,4.71 135.94,9.91 C96.46,14.16 63.88,36.32 46.12,71.00 C35.93,90.91 32.03,110.97 34.08,133.00 C36.71,161.30 48.31,185.45 68.70,205.09 C78.36,214.40 82.75,217.63 94.00,223.73 C105.39,229.90 127.21,237.08 128.46,235.07 C129.41,233.53 126.80,226.85 124.03,223.69 C122.46,221.90 116.43,217.85 110.63,214.69 C104.82,211.52 98.63,207.72 96.86,206.23 C92.86,202.86 85.88,188.36 83.07,177.56 C80.37,167.21 80.40,166.80 83.75,167.18 C86.83,167.54 89.29,171.64 93.13,182.79 C95.74,190.36 100.37,195.72 108.44,200.49 C118.96,206.71 118.48,204.65 107.52,196.55 C99.95,190.95 97.94,187.98 100.04,185.45 C101.70,183.46 101.75,183.47 109.50,188.15 C113.28,190.43 119.10,193.39 122.44,194.74 C125.77,196.09 129.97,198.30 131.77,199.66 C138.36,204.64 143.22,216.67 144.55,231.31 C145.16,237.96 145.23,238.11 147.84,237.81 C150.39,237.51 150.53,237.19 151.20,229.80 ZM 153.00 188.04 C153.00,186.70 172.55,178.08 180.84,175.77 L 188.98 173.50 L 188.99 153.75 L 189.00 134.00 L 193.02 134.00 L 197.04 134.00 L 196.77 156.22 L 196.50 178.44 L 180.00 182.05 C170.93,184.04 161.14,186.37 158.25,187.22 C155.36,188.08 153.00,188.45 153.00,188.04 ZM 125.50 184.38 C117.80,182.52 108.69,180.51 105.25,179.90 L 99.00 178.79 L 99.00 156.40 L 99.00 134.00 L 102.48 134.00 L 105.96 134.00 L 106.23 153.62 L 106.50 173.24 L 115.64 175.95 C125.73,178.94 141.98,186.29 140.46,187.19 C139.93,187.50 133.20,186.24 125.50,184.38 ZM 140.58 183.85 C134.13,179.83 128.38,177.33 118.00,174.02 L 109.50 171.30 L 109.23 148.65 L 108.96 126.00 L 111.29 126.00 C115.15,126.00 128.84,129.91 135.39,132.88 C138.78,134.41 142.80,137.16 144.34,138.99 L 147.13 142.31 L 146.82 159.40 C146.65,168.81 146.29,178.85 146.01,181.71 L 145.50 186.93 L 140.58 183.85 ZM 149.00 164.10 L 149.00 141.21 L 152.60 138.05 C158.38,132.97 171.06,128.01 182.25,126.44 L 187.00 125.77 L 187.00 148.42 C187.00,165.68 186.70,171.15 185.75,171.42 C171.85,175.43 160.44,180.21 153.50,184.94 C151.85,186.07 150.16,186.99 149.75,186.99 C149.34,187.00 149.00,176.70 149.00,164.10 ZM 87.35 154.19 C85.78,151.67 88.40,149.26 90.47,151.33 C91.73,152.58 91.69,152.97 90.17,154.34 C88.58,155.78 88.34,155.77 87.35,154.19 ZM 205.20 154.45 C204.12,153.22 204.16,152.70 205.45,151.41 C206.77,150.09 207.21,150.06 208.38,151.24 C209.49,152.34 209.51,152.95 208.52,154.31 C207.04,156.33 206.87,156.34 205.20,154.45 ZM 145.81 127.60 C144.28,126.49 144.31,126.29 146.11,125.16 C147.71,124.17 148.36,124.21 149.56,125.42 C150.88,126.73 150.84,127.02 149.26,127.86 C148.05,128.51 146.93,128.42 145.81,127.60 ZM 202.38 126.58 C201.55,125.68 201.57,124.94 202.44,123.76 C203.50,122.30 203.72,122.32 204.76,123.99 C206.22,126.32 204.18,128.54 202.38,126.58 ZM 90.56 126.09 C89.98,125.16 90.85,122.00 91.68,122.00 C91.93,122.00 92.76,122.61 93.51,123.36 C94.53,124.38 94.58,125.02 93.74,125.86 C92.36,127.24 91.31,127.31 90.56,126.09 ZM 119.57 118.11 C119.27,117.63 119.63,116.72 120.38,116.10 C121.40,115.25 122.02,115.32 122.89,116.37 C123.79,117.46 123.69,117.90 122.44,118.38 C120.37,119.18 120.22,119.17 119.57,118.11 ZM 172.45 117.91 C171.28,116.03 173.71,114.51 175.50,116.00 C176.77,117.05 176.83,117.49 175.80,118.15 C174.04,119.26 173.24,119.20 172.45,117.91 ZM 131.58 113.60 C130.86,109.76 132.29,102.27 134.59,97.83 C135.43,96.19 140.94,89.83 146.83,83.68 C157.72,72.30 160.03,68.39 159.98,61.38 C159.95,57.35 156.82,51.04 153.14,47.58 C150.76,45.34 150.29,44.35 151.14,43.33 C153.06,41.02 154.84,41.86 158.89,46.99 C163.93,53.36 165.38,57.83 164.74,64.98 C164.01,73.04 162.09,76.12 150.43,88.00 C139.15,99.48 136.06,104.70 136.02,112.25 C136.00,116.23 135.69,117.00 134.11,117.00 C132.76,117.00 132.04,116.04 131.58,113.60 ZM 159.92 116.75 C159.88,116.61 159.72,114.25 159.58,111.50 C159.28,105.73 157.08,100.88 152.67,96.23 L 149.56 92.95 L 153.59 89.23 C155.81,87.18 160.11,83.22 163.14,80.44 C166.97,76.93 169.37,73.64 171.01,69.69 C174.01,62.45 175.19,62.35 173.20,69.50 C172.36,72.53 171.91,75.25 172.21,75.55 C172.51,75.85 174.78,75.58 177.25,74.96 C179.72,74.34 182.81,74.01 184.12,74.23 C186.36,74.62 186.33,74.69 183.50,75.43 C173.50,78.05 168.35,80.66 162.68,85.99 L 156.74 91.57 L 159.80 97.04 C161.48,100.04 163.16,104.19 163.54,106.25 C164.44,111.21 163.32,117.00 161.45,117.00 C160.65,117.00 159.96,116.89 159.92,116.75 ZM 142.25 107.28 C135.99,106.50 139.08,105.00 146.94,105.00 C155.14,105.00 158.33,106.28 152.86,107.38 C149.70,108.01 148.04,107.99 142.25,107.28 ZM 113.00 96.10 C113.00,94.20 115.95,87.71 117.69,85.79 C118.58,84.80 120.66,84.00 122.31,84.00 C125.30,84.00 125.31,84.01 123.40,86.14 C121.51,88.27 121.51,88.28 123.70,86.93 C128.48,84.00 127.83,90.56 123.01,93.99 C119.49,96.50 113.00,97.86 113.00,96.10 ZM 174.50 95.35 C172.85,94.49 170.94,93.07 170.25,92.20 C168.73,90.27 168.60,86.00 170.06,86.00 C170.64,86.00 170.84,85.55 170.50,85.00 C170.14,84.42 171.09,84.00 172.75,84.00 C176.92,84.00 183.00,91.16 183.00,96.07 C183.00,97.52 177.82,97.09 174.50,95.35 ZM 98.26 88.34 C96.56,87.65 99.09,82.86 102.61,80.09 C108.28,75.63 116.99,78.71 113.37,83.88 C110.52,87.95 102.87,90.21 98.26,88.34 ZM 134.54 87.05 C131.61,83.80 124.01,79.39 117.08,76.91 C109.84,74.32 110.40,73.28 118.15,74.94 C120.98,75.54 123.48,75.85 123.71,75.62 C123.95,75.39 123.43,72.83 122.57,69.93 C121.71,67.03 121.19,64.47 121.42,64.25 C121.87,63.80 126.00,72.70 126.00,74.11 C126.00,74.57 129.04,77.46 132.75,80.52 C136.46,83.59 139.50,86.63 139.50,87.28 C139.50,89.32 136.47,89.17 134.54,87.05 ZM 184.90 86.72 C181.62,84.51 179.67,80.00 181.99,80.00 C182.61,80.00 182.84,79.55 182.50,79.00 C182.12,78.39 183.63,78.00 186.36,78.00 C190.39,78.00 191.21,78.43 194.42,82.18 C199.30,87.88 199.09,89.00 193.15,89.00 C189.75,89.00 187.28,88.31 184.90,86.72 ZM 137.84 80.75 C133.23,75.85 130.02,68.33 130.03,62.50 C130.05,53.27 134.56,46.46 146.63,37.37 C153.90,31.90 158.14,26.44 159.54,20.75 C160.00,18.88 160.86,18.00 162.24,18.00 C164.04,18.00 164.19,18.44 163.60,22.10 C162.41,29.56 160.33,32.29 147.99,42.59 C132.93,55.17 131.08,64.31 141.16,76.29 C144.45,80.20 144.96,81.34 143.97,82.54 C142.21,84.66 141.24,84.38 137.84,80.75 ZM 192.44 75.53 C191.37,74.72 190.89,74.05 191.37,74.03 C191.85,74.01 191.72,73.36 191.07,72.59 C190.14,71.47 190.37,70.74 192.14,69.09 C193.87,67.47 195.68,67.00 200.13,67.00 C203.29,67.00 206.13,67.40 206.43,67.88 C207.32,69.32 202.92,74.13 199.36,75.62 C195.24,77.34 194.83,77.34 192.44,75.53 ZM 93.31 74.08 C91.56,72.99 89.66,71.23 89.08,70.15 C87.77,67.70 89.29,67.00 95.93,67.00 C101.27,67.00 105.22,69.83 103.22,72.23 C102.64,72.93 102.24,73.95 102.34,74.50 C102.64,76.35 96.54,76.07 93.31,74.08 ZM 141.50 74.00 C141.11,73.38 143.16,73.00 146.94,73.00 C150.31,73.00 153.00,73.44 153.00,74.00 C153.00,74.55 150.55,75.00 147.56,75.00 C144.57,75.00 141.84,74.55 141.50,74.00 ZM 182.00 69.57 C182.00,69.22 182.77,67.71 183.71,66.21 C185.41,63.52 185.41,63.51 183.38,65.25 C180.75,67.51 180.00,67.46 180.00,65.02 C180.00,63.92 181.25,61.63 182.78,59.92 C184.92,57.52 186.65,56.68 190.27,56.27 L 194.97 55.74 L 193.43 60.25 C192.59,62.72 190.91,65.67 189.70,66.80 C187.53,68.83 182.00,70.82 182.00,69.57 ZM 107.10 67.71 C105.77,67.07 103.67,64.33 102.37,61.53 L 100.03 56.50 L 103.13 56.18 C109.44,55.52 115.00,59.71 115.00,65.12 C115.00,68.91 111.80,69.97 107.10,67.71 ZM 138.00 66.50 C138.00,65.32 139.38,65.00 144.38,65.00 C147.88,65.00 152.15,65.28 153.86,65.62 C159.57,66.76 155.98,68.00 146.94,68.00 C139.66,68.00 138.00,67.72 138.00,66.50 ZM 117.31 58.50 C113.67,55.96 110.82,44.85 113.19,42.48 C114.18,41.49 121.83,45.82 123.42,48.26 C125.65,51.72 126.29,55.60 125.01,57.99 C123.89,60.08 123.78,60.10 122.34,58.33 C120.98,56.67 120.89,56.66 121.39,58.25 C122.07,60.41 120.20,60.53 117.31,58.50 ZM 171.05 59.05 C168.55,57.47 169.44,51.21 172.65,47.78 C175.05,45.24 180.54,42.00 182.47,42.00 C182.76,42.00 183.00,43.77 183.00,45.93 C183.00,55.52 176.59,62.56 171.05,59.05 ZM 142.00 51.00 C142.00,50.45 143.77,50.00 145.94,50.00 C148.11,50.00 150.16,50.45 150.50,51.00 C150.88,51.61 149.34,52.00 146.56,52.00 C144.05,52.00 142.00,51.55 142.00,51.00 ZM 124.75 42.92 C122.45,41.58 120.00,36.75 120.00,33.55 C120.00,31.54 120.50,31.00 122.37,31.00 C127.04,31.00 133.15,38.56 131.65,42.48 C130.98,44.21 127.36,44.44 124.75,42.92 ZM 165.25 43.34 C161.79,41.94 165.50,34.35 171.04,31.48 C176.24,28.79 176.82,29.50 174.93,36.31 C173.23,42.42 169.57,45.08 165.25,43.34 ZM 138.07 34.09 C132.22,26.70 130.02,18.00 134.00,18.00 C135.35,18.00 136.00,18.67 136.00,20.05 C136.00,22.93 138.69,27.94 142.27,31.71 C144.82,34.40 145.11,35.17 144.03,36.46 C142.18,38.70 141.51,38.43 138.07,34.09 Z" fill="rgb(251,253,253)"/>
</g>
</svg>